# xmcd CD database file
#
# Track frame offsets:
#	150
#	30110
#	61220
#	110760
#	135310
#
# Disc length: 2360 seconds
#
# Revision: 1
# Processed by: cddbd v1.4PL0 Copyright (c) Steve Scherf et al.
# Submitted via: CDex 1.40Beta8
#
DISCID=35093605
DTITLE=Steve Thorpe and Blues Orchestra - Live, Down And Dirty at Dirty Harry's
DYEAR=2000
DGENRE=Blues
TTITLE0=Someday After A While
TTITLE1=Meet Me With Your Black Drawers On
TTITLE2=Sweet Little Angel/How Can You Get
TTITLE3=Flower Girl
TTITLE4=Little Wing
EXTD=YEAR: 2000 ID3G: 0
EXTT0=
EXTT1=
EXTT2=
EXTT3=
EXTT4=
PLAYORDER=
